<svg width="24" height="24" viewBox="0 0 24 24" fill="none" xmlns="http://www.w3.org/2000/svg">
<path fill-rule="evenodd" clip-rule="evenodd" d="M12 20.75C14.3206 20.75 16.5462 19.8281 18.1872 18.1872C19.8281 16.5462 20.75 14.3206 20.75 12C20.75 9.67936 19.8281 7.45376 18.1872 5.81282C16.5462 4.17187 14.3206 3.25 12 3.25C9.67936 3.25 7.45376 4.17187 5.81282 5.81282C4.17187 7.45376 3.25 9.67936 3.25 12C3.25 14.3206 4.17187 16.5462 5.81282 18.1872C7.45376 19.8281 9.67936 20.75 12 20.75ZM12 22C14.6522 22 17.1957 20.9464 19.0711 19.0711C20.9464 17.1957 22 14.6522 22 12C22 9.34784 20.9464 6.8043 19.0711 4.92893C17.1957 3.05357 14.6522 2 12 2C9.34784 2 6.8043 3.05357 4.92893 4.92893C3.05357 6.8043 2 9.34784 2 12C2 14.6522 3.05357 17.1957 4.92893 19.0711C6.8043 20.9464 9.34784 22 12 22ZM7 12.0002C7 12.1659 7.06585 12.3249 7.18306 12.4421C7.30027 12.5593 7.45924 12.6252 7.625 12.6252H14.8663L12.1825 15.3077C12.1244 15.3658 12.0783 15.4348 12.0468 15.5107C12.0154 15.5866 11.9992 15.668 11.9992 15.7502C11.9992 15.8324 12.0154 15.9137 12.0468 15.9897C12.0783 16.0656 12.1244 16.1346 12.1825 16.1927C12.2406 16.2508 12.3096 16.2969 12.3855 16.3283C12.4614 16.3598 12.5428 16.376 12.625 16.376C12.7072 16.376 12.7886 16.3598 12.8645 16.3283C12.9404 16.2969 13.0094 16.2508 13.0675 16.1927L16.8175 12.4427C16.8757 12.3846 16.9219 12.3157 16.9534 12.2397C16.9849 12.1638 17.0011 12.0824 17.0011 12.0002C17.0011 11.918 16.9849 11.8366 16.9534 11.7606C16.9219 11.6847 16.8757 11.6157 16.8175 11.5577L13.0675 7.80768C13.0094 7.74957 12.9404 7.70347 12.8645 7.67203C12.7886 7.64058 12.7072 7.62439 12.625 7.62439C12.5428 7.62439 12.4614 7.64058 12.3855 7.67203C12.3096 7.70347 12.2406 7.74957 12.1825 7.80768C12.1244 7.86579 12.0783 7.93478 12.0468 8.0107C12.0154 8.08662 11.9992 8.168 11.9992 8.25018C11.9992 8.33236 12.0154 8.41373 12.0468 8.48966C12.0783 8.56558 12.1244 8.63457 12.1825 8.69268L14.8663 11.3752H7.625C7.45924 11.3752 7.30027 11.441 7.18306 11.5582C7.06585 11.6754 7 11.8344 7 12.0002Z" fill="#292929"/>
</svg>
